<?xml version="1.0" encoding="utf-8" standalone="no"?>
<!DOCTYPE svg PUBLIC "-//W3C//DTD SVG 1.1//EN"
  "http://www.w3.org/Graphics/SVG/1.1/DTD/svg11.dtd">
<svg xmlns:xlink="http://www.w3.org/1999/xlink" width="1068.325176pt" height="369.98854pt" viewBox="0 0 1068.325176 369.98854" xmlns="http://www.w3.org/2000/svg" version="1.1">
 <metadata>
  <rdf:RDF xmlns:dc="http://purl.org/dc/elements/1.1/" xmlns:cc="http://creativecommons.org/ns#" xmlns:rdf="http://www.w3.org/1999/02/22-rdf-syntax-ns#">
   <cc:Work>
    <dc:type rdf:resource="http://purl.org/dc/dcmitype/StillImage"/>
    <dc:date>2025-03-14T17:47:19.725267</dc:date>
    <dc:format>image/svg+xml</dc:format>
    <dc:creator>
     <cc:Agent>
      <dc:title>Matplotlib v3.8.2, https://matplotlib.org/</dc:title>
     </cc:Agent>
    </dc:creator>
   </cc:Work>
  </rdf:RDF>
 </metadata>
 <defs>
  <style type="text/css">*{stroke-linejoin: round; stroke-linecap: butt}</style>
 </defs>
 <g id="figure_1">
  <g id="patch_1">
   <path d="M 0 369.98854 
L 1068.325176 369.98854 
L 1068.325176 -0 
L 0 -0 
z
" style="fill: #ffffff"/>
  </g>
  <g id="axes_1">
   <g id="patch_2">
    <path d="M 42.13125 331.78854 
L 1053.391541 331.78854 
L 1053.391541 45.18981 
L 42.13125 45.18981 
z
" style="fill: #ffffff"/>
   </g>
   <g id="matplotlib.axis_1">
    <g id="xtick_1">
     <g id="line2d_1">
      <path d="M 88.097627 331.78854 
L 88.097627 45.18981 
" clip-path="url(#p66d95eb5f9)" style="fill: none; stroke: #b0b0b0; stroke-width: 0.8; stroke-linecap: square"/>
     </g>
     <g id="line2d_2">
      <defs>
       <path id="m0a9c99bc5f" d="M 0 0 
L 0 3.5 
" style="stroke: #000000; stroke-width: 0.8"/>
      </defs>
      <g>
       <use xlink:href="#m0a9c99bc5f" x="88.097627" y="331.78854" style="stroke: #000000; stroke-width: 0.8"/>
      </g>
     </g>
     <g id="text_1">
      <!-- 0 -->
      <g transform="translate(85.212471 346.679165) scale(0.1 -0.1)">
       <defs>
        <path id="Gulliver-30" d="M 3437 2432 
C 3437 3514 3238 4147 2790 4499 
C 2554 4678 2278 4762 1894 4762 
C 1210 4762 717 4429 486 3802 
C 333 3373 269 2944 269 2266 
C 269 659 742 -58 1805 -58 
C 2912 -58 3437 730 3437 2432 
z
M 2752 2368 
C 2752 877 2490 307 1818 307 
C 1427 307 1197 506 1088 928 
C 998 1293 954 1722 954 2342 
C 954 3834 1222 4397 1882 4397 
C 2278 4397 2509 4205 2618 3782 
C 2714 3418 2752 2982 2752 2368 
z
" transform="scale(0.015625)"/>
       </defs>
       <use xlink:href="#Gulliver-30"/>
      </g>
     </g>
    </g>
    <g id="xtick_2">
     <g id="line2d_3">
      <path d="M 225.037835 331.78854 
L 225.037835 45.18981 
" clip-path="url(#p66d95eb5f9)" style="fill: none; stroke: #b0b0b0; stroke-width: 0.8; stroke-linecap: square"/>
     </g>
     <g id="line2d_4">
      <g>
       <use xlink:href="#m0a9c99bc5f" x="225.037835" y="331.78854" style="stroke: #000000; stroke-width: 0.8"/>
      </g>
     </g>
     <g id="text_2">
      <!-- 5000 -->
      <g transform="translate(213.487053 346.679165) scale(0.1 -0.1)">
       <defs>
        <path id="Gulliver-35" d="M 3258 1600 
C 3258 2528 2733 3027 1760 3027 
C 1517 3027 1306 3002 1024 2931 
L 998 2925 
L 1165 4147 
L 3027 4147 
L 3027 4704 
L 806 4704 
L 499 2483 
C 851 2579 1165 2624 1485 2624 
C 2240 2624 2592 2278 2592 1542 
C 2592 742 2214 288 1536 288 
C 1293 288 1165 346 1043 493 
L 902 666 
C 864 717 819 730 730 730 
C 506 730 346 589 346 397 
C 346 102 749 -58 1459 -58 
C 2605 -58 3258 544 3258 1600 
z
" transform="scale(0.015625)"/>
       </defs>
       <use xlink:href="#Gulliver-35"/>
       <use xlink:href="#Gulliver-30" x="57.899994"/>
       <use xlink:href="#Gulliver-30" x="115.599991"/>
       <use xlink:href="#Gulliver-30" x="173.299988"/>
      </g>
     </g>
    </g>
    <g id="xtick_3">
     <g id="line2d_5">
      <path d="M 361.978043 331.78854 
L 361.978043 45.18981 
" clip-path="url(#p66d95eb5f9)" style="fill: none; stroke: #b0b0b0; stroke-width: 0.8; stroke-linecap: square"/>
     </g>
     <g id="line2d_6">
      <g>
       <use xlink:href="#m0a9c99bc5f" x="361.978043" y="331.78854" style="stroke: #000000; stroke-width: 0.8"/>
      </g>
     </g>
     <g id="text_3">
      <!-- 10000 -->
      <g transform="translate(347.542105 346.679165) scale(0.1 -0.1)">
       <defs>
        <path id="Gulliver-31" d="M 2726 0 
L 2726 134 
L 2509 230 
C 2330 307 2298 397 2298 806 
L 2298 4742 
L 2106 4742 
C 1734 4493 1344 4294 646 4013 
L 582 3987 
L 582 3795 
L 1395 3942 
C 1434 3949 1472 3955 1517 3955 
C 1613 3955 1645 3917 1645 3808 
L 1645 806 
C 1645 397 1613 307 1434 230 
L 1216 134 
L 1216 0 
L 2726 0 
z
" transform="scale(0.015625)"/>
       </defs>
       <use xlink:href="#Gulliver-31"/>
       <use xlink:href="#Gulliver-30" x="57.899994"/>
       <use xlink:href="#Gulliver-30" x="115.599991"/>
       <use xlink:href="#Gulliver-30" x="173.299988"/>
       <use xlink:href="#Gulliver-30" x="230.999985"/>
      </g>
     </g>
    </g>
    <g id="xtick_4">
     <g id="line2d_7">
      <path d="M 498.91825 331.78854 
L 498.91825 45.18981 
" clip-path="url(#p66d95eb5f9)" style="fill: none; stroke: #b0b0b0; stroke-width: 0.8; stroke-linecap: square"/>
     </g>
     <g id="line2d_8">
      <g>
       <use xlink:href="#m0a9c99bc5f" x="498.91825" y="331.78854" style="stroke: #000000; stroke-width: 0.8"/>
      </g>
     </g>
     <g id="text_4">
      <!-- 15000 -->
      <g transform="translate(484.472157 346.679165) scale(0.1 -0.1)">
       <use xlink:href="#Gulliver-31"/>
       <use xlink:href="#Gulliver-35" x="57.899994"/>
       <use xlink:href="#Gulliver-30" x="115.799988"/>
       <use xlink:href="#Gulliver-30" x="173.499985"/>
       <use xlink:href="#Gulliver-30" x="231.199982"/>
      </g>
     </g>
    </g>
    <g id="xtick_5">
     <g id="line2d_9">
      <path d="M 635.858458 331.78854 
L 635.858458 45.18981 
" clip-path="url(#p66d95eb5f9)" style="fill: none; stroke: #b0b0b0; stroke-width: 0.8; stroke-linecap: square"/>
     </g>
     <g id="line2d_10">
      <g>
       <use xlink:href="#m0a9c99bc5f" x="635.858458" y="331.78854" style="stroke: #000000; stroke-width: 0.8"/>
      </g>
     </g>
     <g id="text_5">
      <!-- 20000 -->
      <g transform="translate(621.422521 346.679165) scale(0.1 -0.1)">
       <defs>
        <path id="Gulliver-32" d="M 3296 941 
L 3130 941 
L 2899 710 
C 2803 614 2656 544 2534 531 
C 2470 518 2374 518 2253 518 
L 922 518 
L 1082 659 
C 1709 1216 1965 1466 2291 1792 
C 2899 2406 3142 2906 3142 3520 
C 3142 4333 2618 4762 1619 4762 
C 870 4762 314 4518 314 4192 
C 314 4000 448 3885 672 3885 
C 781 3885 838 3917 870 3962 
L 1037 4192 
C 1146 4339 1318 4410 1606 4410 
C 2182 4410 2438 4122 2438 3482 
C 2438 2957 2291 2566 1933 2112 
C 1613 1715 998 1158 339 454 
L 262 358 
L 262 0 
L 3072 0 
L 3296 941 
z
" transform="scale(0.015625)"/>
       </defs>
       <use xlink:href="#Gulliver-32"/>
       <use xlink:href="#Gulliver-30" x="57.899994"/>
       <use xlink:href="#Gulliver-30" x="115.599991"/>
       <use xlink:href="#Gulliver-30" x="173.299988"/>
       <use xlink:href="#Gulliver-30" x="230.999985"/>
      </g>
     </g>
    </g>
    <g id="xtick_6">
     <g id="line2d_11">
      <path d="M 772.798666 331.78854 
L 772.798666 45.18981 
" clip-path="url(#p66d95eb5f9)" style="fill: none; stroke: #b0b0b0; stroke-width: 0.8; stroke-linecap: square"/>
     </g>
     <g id="line2d_12">
      <g>
       <use xlink:href="#m0a9c99bc5f" x="772.798666" y="331.78854" style="stroke: #000000; stroke-width: 0.8"/>
      </g>
     </g>
     <g id="text_6">
      <!-- 25000 -->
      <g transform="translate(758.352572 346.679165) scale(0.1 -0.1)">
       <use xlink:href="#Gulliver-32"/>
       <use xlink:href="#Gulliver-35" x="57.899994"/>
       <use xlink:href="#Gulliver-30" x="115.799988"/>
       <use xlink:href="#Gulliver-30" x="173.499985"/>
       <use xlink:href="#Gulliver-30" x="231.199982"/>
      </g>
     </g>
    </g>
    <g id="xtick_7">
     <g id="line2d_13">
      <path d="M 909.738874 331.78854 
L 909.738874 45.18981 
" clip-path="url(#p66d95eb5f9)" style="fill: none; stroke: #b0b0b0; stroke-width: 0.8; stroke-linecap: square"/>
     </g>
     <g id="line2d_14">
      <g>
       <use xlink:href="#m0a9c99bc5f" x="909.738874" y="331.78854" style="stroke: #000000; stroke-width: 0.8"/>
      </g>
     </g>
     <g id="text_7">
      <!-- 30000 -->
      <g transform="translate(895.302937 346.679165) scale(0.1 -0.1)">
       <defs>
        <path id="Gulliver-33" d="M 1120 2278 
L 1382 2278 
C 1677 2278 1869 2259 2016 2208 
C 2355 2099 2522 1837 2522 1414 
C 2522 710 2093 384 1178 384 
C 813 384 493 442 154 576 
L 154 442 
C 454 122 947 -58 1536 -58 
C 2528 -58 3194 512 3194 1363 
C 3194 2080 2822 2458 2054 2515 
C 2714 2701 3040 3091 3040 3693 
C 3040 4390 2560 4768 1677 4768 
C 947 4768 416 4531 416 4205 
C 416 4013 550 3898 781 3898 
C 883 3898 934 3910 966 3962 
L 1126 4198 
C 1242 4371 1382 4429 1683 4429 
C 2150 4429 2374 4166 2374 3629 
C 2374 3270 2298 3059 2099 2886 
C 1882 2707 1658 2643 1216 2643 
L 1120 2643 
L 1120 2278 
z
" transform="scale(0.015625)"/>
       </defs>
       <use xlink:href="#Gulliver-33"/>
       <use xlink:href="#Gulliver-30" x="57.899994"/>
       <use xlink:href="#Gulliver-30" x="115.599991"/>
       <use xlink:href="#Gulliver-30" x="173.299988"/>
       <use xlink:href="#Gulliver-30" x="230.999985"/>
      </g>
     </g>
    </g>
    <g id="xtick_8">
     <g id="line2d_15">
      <path d="M 1046.679082 331.78854 
L 1046.679082 45.18981 
" clip-path="url(#p66d95eb5f9)" style="fill: none; stroke: #b0b0b0; stroke-width: 0.8; stroke-linecap: square"/>
     </g>
     <g id="line2d_16">
      <g>
       <use xlink:href="#m0a9c99bc5f" x="1046.679082" y="331.78854" style="stroke: #000000; stroke-width: 0.8"/>
      </g>
     </g>
     <g id="text_8">
      <!-- 35000 -->
      <g transform="translate(1032.232988 346.679165) scale(0.1 -0.1)">
       <use xlink:href="#Gulliver-33"/>
       <use xlink:href="#Gulliver-35" x="57.899994"/>
       <use xlink:href="#Gulliver-30" x="115.799988"/>
       <use xlink:href="#Gulliver-30" x="173.499985"/>
       <use xlink:href="#Gulliver-30" x="231.199982"/>
      </g>
     </g>
    </g>
    <g id="text_9">
     <!-- Anual GHG Emissions (kgCO2eq) -->
     <g transform="translate(472.582489 360.679165) scale(0.1 -0.1)">
      <defs>
       <path id="Gulliver-41" d="M 4224 0 
L 4224 134 
L 4090 243 
C 3994 320 3923 461 3814 800 
L 2509 4819 
L 1786 4634 
L 410 742 
C 307 454 230 314 147 243 
L 19 134 
L 19 0 
L 1133 0 
L 1133 134 
L 979 243 
C 922 288 890 352 890 422 
C 890 486 902 563 934 659 
L 1325 1869 
L 2810 1869 
L 3187 659 
C 3219 563 3232 486 3232 422 
C 3232 352 3194 288 3136 243 
L 2989 134 
L 2989 0 
L 4224 0 
z
M 2694 2253 
L 1453 2253 
L 2086 4218 
L 2694 2253 
z
" transform="scale(0.015625)"/>
       <path id="Gulliver-6e" d="M 3686 0 
L 3686 134 
L 3520 224 
C 3360 314 3334 397 3334 787 
L 3334 2112 
C 3334 2387 3334 2592 3309 2746 
C 3270 2989 3187 3142 3078 3251 
C 2880 3450 2598 3526 2317 3526 
C 1914 3526 1574 3373 1261 3059 
L 1261 3526 
L 314 3251 
L 314 3117 
L 474 3053 
C 634 2989 666 2899 666 2547 
L 666 787 
C 666 397 640 314 480 224 
L 314 134 
L 314 0 
L 1632 0 
L 1632 134 
L 1472 224 
C 1312 314 1280 397 1280 787 
L 1280 2938 
C 1472 3021 1715 3072 1952 3072 
C 2336 3072 2579 2944 2662 2701 
C 2707 2554 2720 2458 2720 1946 
L 2720 787 
C 2720 397 2688 314 2528 224 
L 2368 134 
L 2368 0 
L 3686 0 
z
" transform="scale(0.015625)"/>
       <path id="Gulliver-75" d="M 3629 154 
L 3629 288 
L 3475 352 
C 3309 422 3277 506 3277 864 
L 3277 3526 
L 2310 3251 
L 2310 3117 
L 2470 3053 
C 2630 2989 2662 2899 2662 2547 
L 2662 525 
L 2650 525 
C 2458 442 2227 397 1984 397 
C 1594 397 1357 518 1280 768 
C 1235 909 1229 1030 1229 1523 
L 1229 3526 
L 262 3251 
L 262 3117 
L 416 3053 
C 576 2989 608 2899 608 2547 
L 608 1363 
C 608 832 614 768 659 589 
C 704 416 794 269 915 160 
C 1082 19 1331 -58 1619 -58 
C 2029 -58 2368 90 2682 416 
L 2682 -58 
L 3629 154 
z
" transform="scale(0.015625)"/>
       <path id="Gulliver-61" d="M 3123 166 
L 3123 294 
L 2944 346 
C 2758 397 2739 454 2739 896 
L 2739 2298 
C 2739 2989 2688 3130 2451 3309 
C 2259 3450 2022 3526 1690 3526 
C 1197 3526 819 3360 576 3027 
L 576 2925 
C 806 3034 1088 3085 1421 3085 
C 1779 3085 1997 2970 2080 2746 
C 2112 2650 2125 2541 2125 2253 
L 2125 1856 
L 1882 1843 
C 1331 1811 1011 1773 781 1683 
C 448 1562 250 1254 250 864 
C 250 307 621 -58 1184 -58 
C 1555 -58 1869 96 2138 397 
L 2144 410 
L 2144 307 
C 2144 83 2285 -58 2522 -58 
C 2643 -58 2720 -32 2886 51 
L 3123 166 
z
M 2125 1568 
L 2125 512 
C 1939 429 1741 384 1536 384 
C 1139 384 902 589 902 922 
C 902 1363 1152 1504 2029 1562 
L 2125 1568 
z
" transform="scale(0.015625)"/>
       <path id="Gulliver-6c" d="M 1632 0 
L 1632 134 
L 1472 224 
C 1312 314 1280 397 1280 787 
L 1280 5050 
L 314 4774 
L 314 4640 
L 474 4576 
C 634 4512 666 4422 666 4070 
L 666 787 
C 666 397 640 314 480 224 
L 314 134 
L 314 0 
L 1632 0 
z
" transform="scale(0.015625)"/>
       <path id="Gulliver-20" transform="scale(0.015625)"/>
       <path id="Gulliver-47" d="M 4282 1709 
L 4282 1843 
L 2938 1843 
L 2938 1709 
L 3098 1619 
C 3258 1530 3283 1446 3283 1056 
L 3283 346 
C 3053 320 2970 314 2790 314 
C 1530 314 979 934 979 2342 
C 979 3680 1568 4378 2688 4378 
C 2880 4378 3008 4365 3110 4326 
C 3245 4282 3347 4198 3507 4051 
L 3757 3821 
L 3885 3821 
L 3885 4627 
L 3840 4640 
C 3462 4749 3110 4762 2733 4762 
C 1152 4762 288 3878 288 2259 
C 288 723 1037 -58 2496 -58 
C 3034 -58 3514 19 3936 173 
L 3936 1056 
C 3936 1446 3962 1530 4122 1619 
L 4282 1709 
z
" transform="scale(0.015625)"/>
       <path id="Gulliver-48" d="M 4461 0 
L 4461 134 
L 4301 224 
C 4141 314 4109 397 4109 787 
L 4109 3917 
C 4109 4307 4141 4390 4301 4480 
L 4461 4570 
L 4461 4704 
L 3104 4704 
L 3104 4570 
L 3264 4480 
C 3430 4390 3456 4307 3456 3917 
L 3456 2624 
L 1318 2624 
L 1318 3917 
C 1318 4307 1350 4390 1510 4480 
L 1670 4570 
L 1670 4704 
L 314 4704 
L 314 4570 
L 480 4480 
C 640 4390 666 4307 666 3917 
L 666 787 
C 666 397 640 314 480 224 
L 314 134 
L 314 0 
L 1670 0 
L 1670 134 
L 1510 224 
C 1350 314 1318 397 1318 787 
L 1318 2240 
L 3456 2240 
L 3456 787 
C 3456 397 3430 314 3264 224 
L 3104 134 
L 3104 0 
L 4461 0 
z
" transform="scale(0.015625)"/>
       <path id="Gulliver-45" d="M 3443 941 
L 3277 941 
L 2861 550 
C 2803 499 2714 435 2630 410 
C 2522 365 2394 358 2221 358 
L 1318 358 
L 1318 2285 
L 1965 2285 
C 2272 2285 2336 2253 2483 2099 
L 2656 1914 
L 2816 1914 
L 2816 3008 
L 2656 3008 
L 2483 2816 
C 2342 2662 2272 2637 1965 2637 
L 1318 2637 
L 1318 4352 
L 2157 4352 
C 2349 4352 2477 4352 2573 4307 
C 2637 4275 2694 4230 2765 4147 
L 3040 3821 
L 3200 3821 
L 3200 4704 
L 314 4704 
L 314 4570 
L 480 4480 
C 640 4390 666 4307 666 3917 
L 666 787 
C 666 397 640 314 480 224 
L 314 134 
L 314 0 
L 3219 0 
L 3443 941 
z
" transform="scale(0.015625)"/>
       <path id="Gulliver-6d" d="M 5734 0 
L 5734 134 
L 5574 224 
C 5414 314 5389 397 5389 787 
L 5389 2112 
C 5389 2579 5376 2701 5331 2880 
C 5286 3053 5197 3200 5075 3302 
C 4896 3450 4646 3533 4339 3533 
C 3910 3533 3533 3373 3194 3078 
C 3027 3379 2733 3526 2317 3526 
C 1914 3526 1574 3373 1261 3059 
L 1261 3526 
L 314 3251 
L 314 3117 
L 474 3053 
C 634 2989 666 2899 666 2547 
L 666 787 
C 666 397 640 314 480 224 
L 314 134 
L 314 0 
L 1632 0 
L 1632 134 
L 1472 224 
C 1312 314 1280 397 1280 787 
L 1280 2950 
C 1472 3034 1715 3072 1952 3072 
C 2336 3072 2579 2944 2662 2701 
C 2707 2554 2720 2458 2720 1946 
L 2720 787 
C 2720 397 2688 314 2528 224 
L 2368 134 
L 2368 0 
L 3686 0 
L 3686 134 
L 3520 224 
C 3360 314 3334 397 3334 787 
L 3334 2112 
C 3334 2630 3309 2810 3251 2970 
C 3462 3034 3712 3078 3962 3078 
C 4384 3078 4627 2957 4710 2701 
C 4762 2554 4768 2458 4768 1946 
L 4768 787 
C 4768 397 4742 314 4582 224 
L 4422 134 
L 4422 0 
L 5734 0 
z
" transform="scale(0.015625)"/>
       <path id="Gulliver-69" d="M 1350 4595 
C 1350 4819 1210 4954 986 4954 
C 749 4954 608 4819 608 4589 
C 608 4365 749 4230 973 4230 
C 1210 4230 1350 4365 1350 4595 
z
M 1632 0 
L 1632 134 
L 1472 224 
C 1312 314 1280 397 1280 787 
L 1280 3526 
L 314 3251 
L 314 3117 
L 474 3053 
C 634 2989 666 2899 666 2547 
L 666 787 
C 666 397 640 314 480 224 
L 314 134 
L 314 0 
L 1632 0 
z
" transform="scale(0.015625)"/>
       <path id="Gulliver-73" d="M 2528 986 
C 2528 1395 2349 1664 1907 1888 
L 1344 2176 
C 1069 2317 960 2464 960 2694 
C 960 3008 1165 3194 1504 3200 
C 1824 3206 2054 2957 2131 2880 
L 2278 2733 
L 2406 2733 
L 2406 3430 
C 2253 3475 1843 3526 1606 3526 
C 851 3526 410 3174 410 2573 
C 410 2170 589 1907 1062 1658 
L 1594 1376 
C 1875 1229 1978 1075 1978 838 
C 1978 486 1741 282 1325 282 
C 1011 282 832 358 614 621 
L 480 781 
L 352 781 
L 352 38 
L 378 32 
C 691 -45 947 -58 1216 -58 
C 2061 -58 2528 314 2528 986 
z
" transform="scale(0.015625)"/>
       <path id="Gulliver-6f" d="M 3354 1792 
C 3354 2899 2810 3526 1850 3526 
C 851 3526 275 2854 275 1690 
C 275 570 813 -58 1779 -58 
C 2778 -58 3354 621 3354 1792 
z
M 2688 1734 
C 2688 736 2419 301 1798 301 
C 1197 301 941 730 941 1728 
C 941 2733 1210 3168 1830 3168 
C 2432 3168 2688 2746 2688 1734 
z
" transform="scale(0.015625)"/>
       <path id="Gulliver-28" d="M 1587 -1350 
L 1805 -1069 
C 1370 -774 1050 -314 864 301 
C 736 742 685 1184 685 1850 
C 685 2515 730 2938 864 3398 
C 954 3718 1088 4006 1254 4243 
C 1408 4448 1600 4627 1805 4768 
L 1587 5050 
C 1363 4928 1133 4717 947 4480 
C 480 3866 269 3046 269 1850 
C 269 659 480 -166 947 -774 
C 1133 -1018 1363 -1229 1587 -1350 
z
" transform="scale(0.015625)"/>
       <path id="Gulliver-6b" d="M 1632 0 
L 1632 134 
L 1472 224 
C 1312 314 1280 397 1280 787 
L 1280 5050 
L 314 4774 
L 314 4640 
L 474 4576 
C 634 4512 666 4422 666 4070 
L 666 787 
C 666 397 640 314 480 224 
L 314 134 
L 314 0 
L 1632 0 
z
M 3501 0 
L 3501 134 
L 3341 243 
C 3213 333 3130 435 2976 646 
L 1997 1990 
L 2803 2810 
C 3002 3014 3168 3155 3283 3226 
L 3475 3334 
L 3475 3469 
L 2246 3469 
L 2246 3334 
L 2342 3258 
C 2387 3219 2413 3162 2413 3104 
C 2413 3021 2374 2957 2272 2835 
L 1402 1850 
L 2669 0 
L 3501 0 
z
" transform="scale(0.015625)"/>
       <path id="Gulliver-67" d="M 1312 1229 
C 1427 1216 1472 1216 1574 1216 
C 2349 1216 2822 1651 2822 2349 
C 2822 2669 2726 2944 2541 3123 
L 3373 3008 
L 3373 3501 
L 2285 3354 
C 2067 3475 1869 3526 1606 3526 
C 858 3526 371 3053 371 2323 
C 371 1779 640 1421 1158 1267 
C 858 1082 704 838 704 570 
C 704 397 768 269 890 166 
C 390 26 154 -218 154 -582 
C 154 -1069 634 -1350 1459 -1350 
C 2528 -1350 3270 -838 3270 -102 
C 3270 230 3098 467 2797 538 
C 2675 570 2554 576 2291 576 
L 1670 576 
C 1376 576 1299 595 1229 685 
C 1197 723 1178 794 1178 870 
C 1178 998 1216 1107 1312 1229 
z
M 986 2374 
C 986 2931 1184 3194 1606 3194 
C 2029 3194 2227 2925 2227 2349 
C 2227 1805 2016 1530 1613 1530 
C 1190 1530 986 1805 986 2374 
z
M 1024 83 
L 2259 83 
C 2586 83 2714 -26 2714 -288 
C 2714 -730 2285 -992 1581 -992 
C 998 -992 704 -800 704 -422 
C 704 -198 800 -58 1024 83 
z
" transform="scale(0.015625)"/>
       <path id="Gulliver-43" d="M 3533 3821 
L 3667 3821 
L 3667 4621 
C 3347 4704 2963 4762 2630 4762 
C 1120 4762 288 3885 288 2285 
C 288 755 979 -58 2272 -58 
C 2880 -58 3366 109 3712 442 
L 3712 576 
L 3686 570 
C 3360 486 3059 429 2733 429 
C 1504 429 979 1030 979 2413 
C 979 3706 1510 4378 2522 4378 
C 2797 4378 2957 4333 3104 4211 
C 3155 4173 3213 4115 3283 4051 
L 3533 3821 
z
" transform="scale(0.015625)"/>
       <path id="Gulliver-4f" d="M 4294 2406 
C 4294 3923 3597 4762 2330 4762 
C 1062 4762 288 3891 288 2285 
C 288 781 992 -58 2253 -58 
C 3565 -58 4294 838 4294 2406 
z
M 3590 2330 
C 3590 947 3187 326 2285 326 
C 1402 326 992 998 992 2400 
C 992 3757 1408 4378 2298 4378 
C 3174 4378 3590 3706 3590 2330 
z
" transform="scale(0.015625)"/>
       <path id="Gulliver-65" d="M 2989 403 
L 2989 531 
C 2726 435 2445 384 2163 384 
C 1254 384 909 774 909 1805 
L 909 1875 
L 3098 1875 
L 3098 1946 
C 3098 3027 2694 3526 1824 3526 
C 858 3526 275 2822 275 1645 
C 275 538 806 -58 1792 -58 
C 2298 -58 2669 83 2989 403 
z
M 915 2125 
C 928 2797 1203 3155 1715 3155 
C 2202 3155 2426 2867 2426 2278 
L 915 2125 
z
" transform="scale(0.015625)"/>
       <path id="Gulliver-71" d="M 3533 -1350 
L 3533 -1216 
L 3366 -1126 
C 3206 -1037 3181 -954 3181 -557 
L 3181 3526 
L 2586 3354 
C 2330 3482 2125 3526 1856 3526 
C 870 3526 275 2803 275 1606 
C 275 563 749 -58 1536 -58 
C 1920 -58 2246 90 2566 410 
L 2566 -557 
C 2566 -947 2534 -1037 2374 -1126 
L 2214 -1216 
L 2214 -1350 
L 3533 -1350 
z
M 2566 525 
C 2381 442 2163 397 1939 397 
C 1254 397 928 819 928 1696 
C 928 2675 1306 3155 2061 3155 
C 2221 3155 2394 3136 2566 3098 
L 2566 525 
z
" transform="scale(0.015625)"/>
       <path id="Gulliver-29" d="M 2093 1850 
C 2093 3046 1882 3866 1414 4480 
C 1229 4717 992 4928 774 5050 
L 557 4768 
C 992 4474 1306 4019 1491 3398 
C 1619 2957 1677 2522 1677 1850 
C 1677 1184 1626 762 1491 301 
C 1402 -19 1274 -307 1101 -544 
C 954 -749 787 -909 557 -1069 
L 774 -1350 
C 992 -1229 1229 -1018 1414 -774 
C 1882 -166 2093 659 2093 1850 
z
" transform="scale(0.015625)"/>
      </defs>
      <use xlink:href="#Gulliver-41"/>
      <use xlink:href="#Gulliver-6e" x="65.999985"/>
      <use xlink:href="#Gulliver-75" x="126.599976"/>
      <use xlink:href="#Gulliver-61" x="186.699966"/>
      <use xlink:href="#Gulliver-6c" x="238.499954"/>
      <use xlink:href="#Gulliver-20" x="268.399948"/>
      <use xlink:href="#Gulliver-47" x="293.399933"/>
      <use xlink:href="#Gulliver-48" x="363.799927"/>
      <use xlink:href="#Gulliver-47" x="438.399918"/>
      <use xlink:href="#Gulliver-20" x="508.799911"/>
      <use xlink:href="#Gulliver-45" x="533.799896"/>
      <use xlink:href="#Gulliver-6d" x="590.19989"/>
      <use xlink:href="#Gulliver-69" x="682.899872"/>
      <use xlink:href="#Gulliver-73" x="712.899857"/>
      <use xlink:href="#Gulliver-73" x="757.499847"/>
      <use xlink:href="#Gulliver-69" x="802.099838"/>
      <use xlink:href="#Gulliver-6f" x="832.099823"/>
      <use xlink:href="#Gulliver-6e" x="888.79982"/>
      <use xlink:href="#Gulliver-73" x="949.399811"/>
      <use xlink:href="#Gulliver-20" x="993.999802"/>
      <use xlink:href="#Gulliver-28" x="1018.999786"/>
      <use xlink:href="#Gulliver-6b" x="1055.999771"/>
      <use xlink:href="#Gulliver-67" x="1111.599762"/>
      <use xlink:href="#Gulliver-43" x="1165.799759"/>
      <use xlink:href="#Gulliver-4f" x="1225.999756"/>
      <use xlink:href="#Gulliver-32" x="1297.599747"/>
      <use xlink:href="#Gulliver-65" x="1355.499741"/>
      <use xlink:href="#Gulliver-71" x="1408.099731"/>
      <use xlink:href="#Gulliver-29" x="1466.699722"/>
     </g>
    </g>
   </g>
   <g id="matplotlib.axis_2">
    <g id="ytick_1">
     <g id="line2d_17">
      <path d="M 42.13125 305.641506 
L 1053.391541 305.641506 
" clip-path="url(#p66d95eb5f9)" style="fill: none; stroke: #b0b0b0; stroke-width: 0.8; stroke-linecap: square"/>
     </g>
     <g id="line2d_18">
      <defs>
       <path id="m621730d01a" d="M 0 0 
L -3.5 0 
" style="stroke: #000000; stroke-width: 0.8"/>
      </defs>
      <g>
       <use xlink:href="#m621730d01a" x="42.13125" y="305.641506" style="stroke: #000000; stroke-width: 0.8"/>
      </g>
     </g>
     <g id="text_10">
      <!-- 0.6 -->
      <g transform="translate(21.220312 309.586819) scale(0.1 -0.1)">
       <defs>
        <path id="Gulliver-2e" d="M 1184 326 
C 1184 608 1037 762 762 762 
C 474 762 326 608 326 314 
C 326 32 467 -115 742 -115 
C 1037 -115 1184 32 1184 326 
z
" transform="scale(0.015625)"/>
        <path id="Gulliver-36" d="M 3450 1587 
C 3450 2445 2950 2963 2125 2963 
C 1664 2963 1286 2803 986 2477 
L 986 2541 
C 986 3840 1338 4416 2131 4416 
C 2400 4416 2547 4358 2650 4211 
L 2784 4013 
C 2822 3962 2867 3942 2963 3942 
C 3187 3942 3341 4083 3341 4282 
C 3341 4582 2899 4762 2176 4762 
C 928 4762 314 3923 314 2234 
C 314 653 800 -58 1882 -58 
C 2867 -58 3450 550 3450 1587 
z
M 2778 1517 
C 2778 710 2477 314 1882 314 
C 1190 314 986 762 986 2291 
L 986 2368 
C 1267 2490 1517 2541 1805 2541 
C 2470 2541 2778 2221 2778 1517 
z
" transform="scale(0.015625)"/>
       </defs>
       <use xlink:href="#Gulliver-30"/>
       <use xlink:href="#Gulliver-2e" x="57.699997"/>
       <use xlink:href="#Gulliver-36" x="81.199982"/>
      </g>
     </g>
    </g>
    <g id="ytick_2">
     <g id="line2d_19">
      <path d="M 42.13125 270.753567 
L 1053.391541 270.753567 
" clip-path="url(#p66d95eb5f9)" style="fill: none; stroke: #b0b0b0; stroke-width: 0.8; stroke-linecap: square"/>
     </g>
     <g id="line2d_20">
      <g>
       <use xlink:href="#m621730d01a" x="42.13125" y="270.753567" style="stroke: #000000; stroke-width: 0.8"/>
      </g>
     </g>
     <g id="text_11">
      <!-- 0.8 -->
      <g transform="translate(21.220312 274.69888) scale(0.1 -0.1)">
       <defs>
        <path id="Gulliver-38" d="M 3296 1210 
C 3296 1498 3219 1734 3059 1939 
C 2912 2125 2778 2221 2451 2413 
L 2195 2573 
C 2867 2778 3181 3149 3181 3731 
C 3181 4384 2688 4762 1850 4762 
C 973 4762 429 4320 429 3590 
C 429 3283 538 3008 736 2810 
C 858 2688 1024 2560 1254 2432 
L 1414 2342 
C 1082 2214 998 2176 813 2048 
C 486 1830 307 1491 307 1075 
C 307 352 832 -58 1766 -58 
C 2726 -58 3296 416 3296 1210 
z
M 2586 3667 
C 2586 3232 2451 2989 2029 2669 
L 1600 2918 
C 1178 3168 1037 3360 1037 3693 
C 1037 4141 1325 4403 1818 4403 
C 2330 4403 2586 4160 2586 3667 
z
M 2643 1114 
C 2643 589 2349 314 1792 314 
C 1235 314 954 582 954 1126 
C 954 1619 1126 1920 1581 2240 
L 2003 1997 
C 2227 1869 2349 1824 2477 1632 
C 2592 1459 2643 1325 2643 1114 
z
" transform="scale(0.015625)"/>
       </defs>
       <use xlink:href="#Gulliver-30"/>
       <use xlink:href="#Gulliver-2e" x="57.699997"/>
       <use xlink:href="#Gulliver-38" x="81.199982"/>
      </g>
     </g>
    </g>
    <g id="ytick_3">
     <g id="line2d_21">
      <path d="M 42.13125 235.865629 
L 1053.391541 235.865629 
" clip-path="url(#p66d95eb5f9)" style="fill: none; stroke: #b0b0b0; stroke-width: 0.8; stroke-linecap: square"/>
     </g>
     <g id="line2d_22">
      <g>
       <use xlink:href="#m621730d01a" x="42.13125" y="235.865629" style="stroke: #000000; stroke-width: 0.8"/>
      </g>
     </g>
     <g id="text_12">
      <!-- 1.0 -->
      <g transform="translate(21.220312 239.810941) scale(0.1 -0.1)">
       <use xlink:href="#Gulliver-31"/>
       <use xlink:href="#Gulliver-2e" x="57.899994"/>
       <use xlink:href="#Gulliver-30" x="81.399979"/>
      </g>
     </g>
    </g>
    <g id="ytick_4">
     <g id="line2d_23">
      <path d="M 42.13125 200.97769 
L 1053.391541 200.97769 
" clip-path="url(#p66d95eb5f9)" style="fill: none; stroke: #b0b0b0; stroke-width: 0.8; stroke-linecap: square"/>
     </g>
     <g id="line2d_24">
      <g>
       <use xlink:href="#m621730d01a" x="42.13125" y="200.97769" style="stroke: #000000; stroke-width: 0.8"/>
      </g>
     </g>
     <g id="text_13">
      <!-- 1.2 -->
      <g transform="translate(21.2 204.923002) scale(0.1 -0.1)">
       <use xlink:href="#Gulliver-31"/>
       <use xlink:href="#Gulliver-2e" x="57.899994"/>
       <use xlink:href="#Gulliver-32" x="81.399979"/>
      </g>
     </g>
    </g>
    <g id="ytick_5">
     <g id="line2d_25">
      <path d="M 42.13125 166.089751 
L 1053.391541 166.089751 
" clip-path="url(#p66d95eb5f9)" style="fill: none; stroke: #b0b0b0; stroke-width: 0.8; stroke-linecap: square"/>
     </g>
     <g id="line2d_26">
      <g>
       <use xlink:href="#m621730d01a" x="42.13125" y="166.089751" style="stroke: #000000; stroke-width: 0.8"/>
      </g>
     </g>
     <g id="text_14">
      <!-- 1.4 -->
      <g transform="translate(21.2 170.035064) scale(0.1 -0.1)">
       <defs>
        <path id="Gulliver-34" d="M 3520 1235 
L 3520 1709 
L 2931 1709 
L 2931 4762 
L 2419 4762 
L 96 1600 
L 96 1235 
L 2323 1235 
L 2323 806 
C 2323 397 2291 307 2112 230 
L 1894 134 
L 1894 0 
L 3360 0 
L 3360 134 
L 3142 230 
C 2963 307 2931 397 2931 806 
L 2931 1235 
L 3520 1235 
z
M 2323 1709 
L 698 1709 
L 2093 3654 
C 2227 3840 2259 3898 2323 4058 
L 2323 1709 
z
" transform="scale(0.015625)"/>
       </defs>
       <use xlink:href="#Gulliver-31"/>
       <use xlink:href="#Gulliver-2e" x="57.899994"/>
       <use xlink:href="#Gulliver-34" x="81.399979"/>
      </g>
     </g>
    </g>
    <g id="ytick_6">
     <g id="line2d_27">
      <path d="M 42.13125 131.201812 
L 1053.391541 131.201812 
" clip-path="url(#p66d95eb5f9)" style="fill: none; stroke: #b0b0b0; stroke-width: 0.8; stroke-linecap: square"/>
     </g>
     <g id="line2d_28">
      <g>
       <use xlink:href="#m621730d01a" x="42.13125" y="131.201812" style="stroke: #000000; stroke-width: 0.8"/>
      </g>
     </g>
     <g id="text_15">
      <!-- 1.6 -->
      <g transform="translate(21.2 135.147125) scale(0.1 -0.1)">
       <use xlink:href="#Gulliver-31"/>
       <use xlink:href="#Gulliver-2e" x="57.899994"/>
       <use xlink:href="#Gulliver-36" x="81.399979"/>
      </g>
     </g>
    </g>
    <g id="ytick_7">
     <g id="line2d_29">
      <path d="M 42.13125 96.313874 
L 1053.391541 96.313874 
" clip-path="url(#p66d95eb5f9)" style="fill: none; stroke: #b0b0b0; stroke-width: 0.8; stroke-linecap: square"/>
     </g>
     <g id="line2d_30">
      <g>
       <use xlink:href="#m621730d01a" x="42.13125" y="96.313874" style="stroke: #000000; stroke-width: 0.8"/>
      </g>
     </g>
     <g id="text_16">
      <!-- 1.8 -->
      <g transform="translate(21.2 100.259186) scale(0.1 -0.1)">
       <use xlink:href="#Gulliver-31"/>
       <use xlink:href="#Gulliver-2e" x="57.899994"/>
       <use xlink:href="#Gulliver-38" x="81.399979"/>
      </g>
     </g>
    </g>
    <g id="ytick_8">
     <g id="line2d_31">
      <path d="M 42.13125 61.425935 
L 1053.391541 61.425935 
" clip-path="url(#p66d95eb5f9)" style="fill: none; stroke: #b0b0b0; stroke-width: 0.8; stroke-linecap: square"/>
     </g>
     <g id="line2d_32">
      <g>
       <use xlink:href="#m621730d01a" x="42.13125" y="61.425935" style="stroke: #000000; stroke-width: 0.8"/>
      </g>
     </g>
     <g id="text_17">
      <!-- 2.0 -->
      <g transform="translate(21.220312 65.371247) scale(0.1 -0.1)">
       <use xlink:href="#Gulliver-32"/>
       <use xlink:href="#Gulliver-2e" x="57.899994"/>
       <use xlink:href="#Gulliver-30" x="81.399979"/>
      </g>
     </g>
    </g>
    <g id="text_18">
     <!-- Total Cost [MUSD] -->
     <g transform="translate(15.090625 230.578237) rotate(-90) scale(0.1 -0.1)">
      <defs>
       <path id="Gulliver-54" d="M 3552 3821 
L 3552 4704 
L 19 4704 
L 19 3821 
L 179 3821 
L 448 4166 
C 576 4333 685 4371 1062 4371 
L 1459 4371 
L 1459 806 
C 1459 397 1427 307 1248 230 
L 1030 134 
L 1030 0 
L 2541 0 
L 2541 134 
L 2323 230 
C 2144 307 2112 397 2112 806 
L 2112 4371 
L 2515 4371 
C 2950 4371 3008 4307 3123 4166 
L 3398 3821 
L 3552 3821 
z
" transform="scale(0.015625)"/>
       <path id="Gulliver-74" d="M 1229 3104 
L 2291 3104 
L 2291 3462 
L 1229 3462 
L 1229 4250 
L 902 4250 
C 845 4006 774 3814 691 3680 
C 589 3514 442 3405 218 3290 
L 218 3104 
L 608 3104 
L 608 883 
C 608 518 646 346 762 198 
C 890 32 1120 -58 1408 -58 
C 1760 -58 2061 70 2291 307 
L 2291 422 
C 2138 378 1978 358 1818 358 
C 1363 358 1229 499 1229 986 
L 1229 3104 
z
" transform="scale(0.015625)"/>
       <path id="Gulliver-5b" d="M 1658 -1350 
L 1658 -1024 
L 1139 -1024 
L 1139 4723 
L 1658 4723 
L 1658 5050 
L 570 5050 
L 570 -1350 
L 1658 -1350 
z
" transform="scale(0.015625)"/>
       <path id="Gulliver-4d" d="M 4333 134 
L 4333 0 
L 5664 0 
L 5664 134 
L 5504 224 
C 5338 314 5312 397 5312 787 
L 5312 3917 
C 5312 4307 5338 4390 5504 4480 
L 5664 4570 
L 5664 4704 
L 4403 4704 
L 3123 1178 
C 3066 1018 3040 934 3021 736 
C 2989 941 2970 1018 2912 1184 
L 1632 4704 
L 314 4704 
L 314 4570 
L 480 4480 
C 640 4390 666 4307 666 3917 
L 666 787 
C 666 397 640 314 480 224 
L 314 134 
L 314 0 
L 1478 0 
L 1478 134 
L 1318 224 
C 1158 314 1126 397 1126 787 
L 1126 4454 
C 1158 4224 1178 4134 1254 3923 
L 2688 0 
L 3123 0 
L 4557 3923 
C 4634 4134 4653 4224 4685 4454 
L 4685 787 
C 4685 397 4659 314 4499 224 
L 4333 134 
z
" transform="scale(0.015625)"/>
       <path id="Gulliver-55" d="M 4384 4570 
L 4384 4704 
L 3117 4704 
L 3117 4570 
L 3277 4480 
C 3437 4390 3462 4307 3462 3917 
L 3462 1677 
C 3462 941 3418 794 3194 602 
C 2989 416 2733 339 2330 339 
C 1766 339 1414 525 1286 890 
C 1222 1075 1203 1242 1203 1677 
L 1203 3917 
C 1203 4307 1235 4390 1395 4480 
L 1555 4570 
L 1555 4704 
L 198 4704 
L 198 4570 
L 365 4480 
C 525 4390 550 4307 550 3917 
L 550 1670 
C 550 966 602 736 813 461 
C 922 326 1082 211 1261 128 
C 1555 0 1869 -58 2285 -58 
C 2938 -58 3418 109 3712 448 
C 3981 755 4032 1114 4032 1837 
L 4032 3917 
C 4032 4307 4064 4390 4224 4480 
L 4384 4570 
z
" transform="scale(0.015625)"/>
       <path id="Gulliver-53" d="M 3066 1261 
C 3066 1606 2976 1875 2733 2118 
C 2592 2259 2413 2394 2170 2534 
L 1709 2803 
C 1261 3066 1133 3174 1043 3373 
C 1005 3456 986 3571 986 3693 
C 986 4141 1274 4390 1792 4390 
C 2144 4390 2278 4326 2554 4064 
L 2803 3821 
L 2931 3821 
L 2931 4627 
L 2899 4634 
C 2579 4698 2208 4762 1882 4762 
C 915 4762 371 4320 371 3539 
C 371 3181 506 2880 749 2669 
C 870 2566 1018 2464 1184 2368 
L 1811 2003 
C 2189 1786 2323 1658 2387 1440 
C 2419 1344 2432 1248 2432 1152 
C 2432 614 2086 314 1478 314 
C 1184 314 1050 352 864 486 
C 800 531 736 589 685 646 
L 429 941 
L 301 941 
L 301 77 
C 544 13 998 -58 1370 -58 
C 1946 -58 2317 38 2605 262 
C 2912 499 3066 838 3066 1261 
z
" transform="scale(0.015625)"/>
       <path id="Gulliver-44" d="M 4294 2477 
C 4294 3610 3821 4397 3008 4608 
C 2694 4685 2483 4704 1901 4704 
L 314 4704 
L 314 4570 
L 480 4480 
C 640 4390 666 4307 666 3917 
L 666 787 
C 666 397 640 314 480 224 
L 314 134 
L 314 0 
L 1670 0 
C 2682 0 3270 186 3693 646 
C 4096 1088 4294 1696 4294 2477 
z
M 3597 2419 
C 3597 1485 3322 845 2803 570 
C 2528 422 2189 358 1709 358 
C 1600 358 1318 378 1318 378 
L 1318 4320 
C 1318 4320 1645 4346 1792 4346 
C 2298 4346 2592 4294 2829 4173 
C 3347 3910 3597 3334 3597 2419 
z
" transform="scale(0.015625)"/>
       <path id="Gulliver-5d" d="M 1747 -1350 
L 1747 5050 
L 653 5050 
L 653 4723 
L 1178 4723 
L 1178 -1024 
L 653 -1024 
L 653 -1350 
L 1747 -1350 
z
" transform="scale(0.015625)"/>
      </defs>
      <use xlink:href="#Gulliver-54"/>
      <use xlink:href="#Gulliver-6f" x="55.799988"/>
      <use xlink:href="#Gulliver-74" x="112.499985"/>
      <use xlink:href="#Gulliver-61" x="149.799973"/>
      <use xlink:href="#Gulliver-6c" x="201.59996"/>
      <use xlink:href="#Gulliver-20" x="231.499954"/>
      <use xlink:href="#Gulliver-43" x="256.499939"/>
      <use xlink:href="#Gulliver-6f" x="316.699936"/>
      <use xlink:href="#Gulliver-73" x="373.399933"/>
      <use xlink:href="#Gulliver-74" x="417.999924"/>
      <use xlink:href="#Gulliver-20" x="455.299911"/>
      <use xlink:href="#Gulliver-5b" x="480.299896"/>
      <use xlink:href="#Gulliver-4d" x="516.399887"/>
      <use xlink:href="#Gulliver-55" x="609.799881"/>
      <use xlink:href="#Gulliver-53" x="681.399872"/>
      <use xlink:href="#Gulliver-44" x="733.999863"/>
      <use xlink:href="#Gulliver-5d" x="805.699844"/>
     </g>
    </g>
   </g>
   <g id="line2d_33">
    <path d="M 88.097627 58.217025 
L 106.484178 183.602325 
L 124.870728 201.350666 
L 143.257279 205.552132 
L 161.64383 196.145062 
L 180.030381 202.503453 
L 198.416931 221.852328 
L 203.118962 208.192123 
L 235.190033 212.205401 
L 253.576584 216.642016 
L 271.963134 221.653374 
L 290.349685 224.470441 
L 308.736236 228.40613 
L 327.122786 233.87353 
L 345.509337 236.230903 
L 363.895888 240.676198 
L 382.282439 250.054822 
L 400.668989 248.222046 
L 419.05554 257.65568 
L 437.442091 256.484978 
L 455.828642 261.714924 
L 474.215192 264.276508 
L 492.601743 269.34019 
L 510.988294 273.421162 
L 529.374845 277.10304 
L 547.761395 289.671406 
L 566.147946 287.730985 
L 584.534497 287.89382 
L 602.921048 291.653419 
L 621.307598 294.572735 
L 639.694149 296.797864 
L 658.0807 299.099756 
L 674.336937 299.275979 
L 694.853801 301.636299 
L 713.240352 307.873535 
L 731.626903 305.77895 
L 750.013454 309.962957 
L 768.400004 316.93338 
L 786.786555 318.761325 
L 805.173106 313.697336 
L 823.559656 314.054588 
L 841.946207 314.299755 
L 860.332758 314.62133 
L 878.719309 315.264432 
L 897.105859 315.153564 
L 915.49241 315.620879 
L 933.878961 316.004102 
L 952.265512 316.449115 
L 970.652062 316.351905 
L 973.273879 316.522321 
L 1007.425164 316.670964 
" clip-path="url(#p66d95eb5f9)" style="fill: none; stroke: #1f77b4; stroke-width: 1.5; stroke-linecap: square"/>
    <defs>
     <path id="mf4597dd68c" d="M 0 3 
C 0.795609 3 1.55874 2.683901 2.12132 2.12132 
C 2.683901 1.55874 3 0.795609 3 0 
C 3 -0.795609 2.683901 -1.55874 2.12132 -2.12132 
C 1.55874 -2.683901 0.795609 -3 0 -3 
C -0.795609 -3 -1.55874 -2.683901 -2.12132 -2.12132 
C -2.683901 -1.55874 -3 -0.795609 -3 0 
C -3 0.795609 -2.683901 1.55874 -2.12132 2.12132 
C -1.55874 2.683901 -0.795609 3 0 3 
z
" style="stroke: #1f77b4"/>
    </defs>
    <g clip-path="url(#p66d95eb5f9)">
     <use xlink:href="#mf4597dd68c" x="88.097627" y="58.217025" style="fill: #1f77b4; stroke: #1f77b4"/>
     <use xlink:href="#mf4597dd68c" x="106.484178" y="183.602325" style="fill: #1f77b4; stroke: #1f77b4"/>
     <use xlink:href="#mf4597dd68c" x="124.870728" y="201.350666" style="fill: #1f77b4; stroke: #1f77b4"/>
     <use xlink:href="#mf4597dd68c" x="143.257279" y="205.552132" style="fill: #1f77b4; stroke: #1f77b4"/>
     <use xlink:href="#mf4597dd68c" x="161.64383" y="196.145062" style="fill: #1f77b4; stroke: #1f77b4"/>
     <use xlink:href="#mf4597dd68c" x="180.030381" y="202.503453" style="fill: #1f77b4; stroke: #1f77b4"/>
     <use xlink:href="#mf4597dd68c" x="198.416931" y="221.852328" style="fill: #1f77b4; stroke: #1f77b4"/>
     <use xlink:href="#mf4597dd68c" x="203.118962" y="208.192123" style="fill: #1f77b4; stroke: #1f77b4"/>
     <use xlink:href="#mf4597dd68c" x="235.190033" y="212.205401" style="fill: #1f77b4; stroke: #1f77b4"/>
     <use xlink:href="#mf4597dd68c" x="253.576584" y="216.642016" style="fill: #1f77b4; stroke: #1f77b4"/>
     <use xlink:href="#mf4597dd68c" x="271.963134" y="221.653374" style="fill: #1f77b4; stroke: #1f77b4"/>
     <use xlink:href="#mf4597dd68c" x="290.349685" y="224.470441" style="fill: #1f77b4; stroke: #1f77b4"/>
     <use xlink:href="#mf4597dd68c" x="308.736236" y="228.40613" style="fill: #1f77b4; stroke: #1f77b4"/>
     <use xlink:href="#mf4597dd68c" x="327.122786" y="233.87353" style="fill: #1f77b4; stroke: #1f77b4"/>
     <use xlink:href="#mf4597dd68c" x="345.509337" y="236.230903" style="fill: #1f77b4; stroke: #1f77b4"/>
     <use xlink:href="#mf4597dd68c" x="363.895888" y="240.676198" style="fill: #1f77b4; stroke: #1f77b4"/>
     <use xlink:href="#mf4597dd68c" x="382.282439" y="250.054822" style="fill: #1f77b4; stroke: #1f77b4"/>
     <use xlink:href="#mf4597dd68c" x="400.668989" y="248.222046" style="fill: #1f77b4; stroke: #1f77b4"/>
     <use xlink:href="#mf4597dd68c" x="419.05554" y="257.65568" style="fill: #1f77b4; stroke: #1f77b4"/>
     <use xlink:href="#mf4597dd68c" x="437.442091" y="256.484978" style="fill: #1f77b4; stroke: #1f77b4"/>
     <use xlink:href="#mf4597dd68c" x="455.828642" y="261.714924" style="fill: #1f77b4; stroke: #1f77b4"/>
     <use xlink:href="#mf4597dd68c" x="474.215192" y="264.276508" style="fill: #1f77b4; stroke: #1f77b4"/>
     <use xlink:href="#mf4597dd68c" x="492.601743" y="269.34019" style="fill: #1f77b4; stroke: #1f77b4"/>
     <use xlink:href="#mf4597dd68c" x="510.988294" y="273.421162" style="fill: #1f77b4; stroke: #1f77b4"/>
     <use xlink:href="#mf4597dd68c" x="529.374845" y="277.10304" style="fill: #1f77b4; stroke: #1f77b4"/>
     <use xlink:href="#mf4597dd68c" x="547.761395" y="289.671406" style="fill: #1f77b4; stroke: #1f77b4"/>
     <use xlink:href="#mf4597dd68c" x="566.147946" y="287.730985" style="fill: #1f77b4; stroke: #1f77b4"/>
     <use xlink:href="#mf4597dd68c" x="584.534497" y="287.89382" style="fill: #1f77b4; stroke: #1f77b4"/>
     <use xlink:href="#mf4597dd68c" x="602.921048" y="291.653419" style="fill: #1f77b4; stroke: #1f77b4"/>
     <use xlink:href="#mf4597dd68c" x="621.307598" y="294.572735" style="fill: #1f77b4; stroke: #1f77b4"/>
     <use xlink:href="#mf4597dd68c" x="639.694149" y="296.797864" style="fill: #1f77b4; stroke: #1f77b4"/>
     <use xlink:href="#mf4597dd68c" x="658.0807" y="299.099756" style="fill: #1f77b4; stroke: #1f77b4"/>
     <use xlink:href="#mf4597dd68c" x="674.336937" y="299.275979" style="fill: #1f77b4; stroke: #1f77b4"/>
     <use xlink:href="#mf4597dd68c" x="694.853801" y="301.636299" style="fill: #1f77b4; stroke: #1f77b4"/>
     <use xlink:href="#mf4597dd68c" x="713.240352" y="307.873535" style="fill: #1f77b4; stroke: #1f77b4"/>
     <use xlink:href="#mf4597dd68c" x="731.626903" y="305.77895" style="fill: #1f77b4; stroke: #1f77b4"/>
     <use xlink:href="#mf4597dd68c" x="750.013454" y="309.962957" style="fill: #1f77b4; stroke: #1f77b4"/>
     <use xlink:href="#mf4597dd68c" x="768.400004" y="316.93338" style="fill: #1f77b4; stroke: #1f77b4"/>
     <use xlink:href="#mf4597dd68c" x="786.786555" y="318.761325" style="fill: #1f77b4; stroke: #1f77b4"/>
     <use xlink:href="#mf4597dd68c" x="805.173106" y="313.697336" style="fill: #1f77b4; stroke: #1f77b4"/>
     <use xlink:href="#mf4597dd68c" x="823.559656" y="314.054588" style="fill: #1f77b4; stroke: #1f77b4"/>
     <use xlink:href="#mf4597dd68c" x="841.946207" y="314.299755" style="fill: #1f77b4; stroke: #1f77b4"/>
     <use xlink:href="#mf4597dd68c" x="860.332758" y="314.62133" style="fill: #1f77b4; stroke: #1f77b4"/>
     <use xlink:href="#mf4597dd68c" x="878.719309" y="315.264432" style="fill: #1f77b4; stroke: #1f77b4"/>
     <use xlink:href="#mf4597dd68c" x="897.105859" y="315.153564" style="fill: #1f77b4; stroke: #1f77b4"/>
     <use xlink:href="#mf4597dd68c" x="915.49241" y="315.620879" style="fill: #1f77b4; stroke: #1f77b4"/>
     <use xlink:href="#mf4597dd68c" x="933.878961" y="316.004102" style="fill: #1f77b4; stroke: #1f77b4"/>
     <use xlink:href="#mf4597dd68c" x="952.265512" y="316.449115" style="fill: #1f77b4; stroke: #1f77b4"/>
     <use xlink:href="#mf4597dd68c" x="970.652062" y="316.351905" style="fill: #1f77b4; stroke: #1f77b4"/>
     <use xlink:href="#mf4597dd68c" x="973.273879" y="316.522321" style="fill: #1f77b4; stroke: #1f77b4"/>
     <use xlink:href="#mf4597dd68c" x="1007.425164" y="316.670964" style="fill: #1f77b4; stroke: #1f77b4"/>
    </g>
   </g>
   <g id="patch_3">
    <path d="M 42.13125 331.78854 
L 42.13125 45.18981 
" style="fill: none; stroke: #000000; stroke-width: 0.8; stroke-linejoin: miter; stroke-linecap: square"/>
   </g>
   <g id="patch_4">
    <path d="M 1053.391541 331.78854 
L 1053.391541 45.18981 
" style="fill: none; stroke: #000000; stroke-width: 0.8; stroke-linejoin: miter; stroke-linecap: square"/>
   </g>
   <g id="patch_5">
    <path d="M 42.13125 331.78854 
L 1053.391541 331.78854 
" style="fill: none; stroke: #000000; stroke-width: 0.8; stroke-linejoin: miter; stroke-linecap: square"/>
   </g>
   <g id="patch_6">
    <path d="M 42.13125 45.18981 
L 1053.391541 45.18981 
" style="fill: none; stroke: #000000; stroke-width: 0.8; stroke-linejoin: miter; stroke-linecap: square"/>
   </g>
   <g id="PathCollection_1">
    <defs>
     <path id="maa8cc4b06d" d="M 0 3 
C 0.795609 3 1.55874 2.683901 2.12132 2.12132 
C 2.683901 1.55874 3 0.795609 3 0 
C 3 -0.795609 2.683901 -1.55874 2.12132 -2.12132 
C 1.55874 -2.683901 0.795609 -3 0 -3 
C -0.795609 -3 -1.55874 -2.683901 -2.12132 -2.12132 
C -2.683901 -1.55874 -3 -0.795609 -3 0 
C -3 0.795609 -2.683901 1.55874 -2.12132 2.12132 
C -1.55874 2.683901 -0.795609 3 0 3 
z
" style="stroke: #ff0000"/>
    </defs>
    <g clip-path="url(#p66d95eb5f9)">
     <use xlink:href="#maa8cc4b06d" x="88.097627" y="58.217025" style="fill: #ff0000; stroke: #ff0000"/>
     <use xlink:href="#maa8cc4b06d" x="308.736236" y="228.40613" style="fill: #ff0000; stroke: #ff0000"/>
     <use xlink:href="#maa8cc4b06d" x="547.761395" y="289.671406" style="fill: #ff0000; stroke: #ff0000"/>
     <use xlink:href="#maa8cc4b06d" x="786.786555" y="318.761325" style="fill: #ff0000; stroke: #ff0000"/>
     <use xlink:href="#maa8cc4b06d" x="1007.425164" y="316.670964" style="fill: #ff0000; stroke: #ff0000"/>
    </g>
   </g>
   <g id="legend_1">
    <g id="patch_7">
     <path d="M 442.292645 25.2 
L 653.230145 25.2 
Q 655.230145 25.2 655.230145 23.2 
L 655.230145 9.2 
Q 655.230145 7.2 653.230145 7.2 
L 442.292645 7.2 
Q 440.292645 7.2 440.292645 9.2 
L 440.292645 23.2 
Q 440.292645 25.2 442.292645 25.2 
z
" style="fill: #ffffff; stroke: #000000; stroke-width: 1.5; stroke-linejoin: miter"/>
    </g>
    <g id="line2d_34">
     <path d="M 444.292645 15.590625 
L 454.292645 15.590625 
L 464.292645 15.590625 
" style="fill: none; stroke: #1f77b4; stroke-width: 1.5; stroke-linecap: square"/>
     <g>
      <use xlink:href="#mf4597dd68c" x="454.292645" y="15.590625" style="fill: #1f77b4; stroke: #1f77b4"/>
     </g>
    </g>
    <g id="text_19">
     <!-- Total Cost -->
     <g transform="translate(472.292645 19.090625) scale(0.1 -0.1)">
      <use xlink:href="#Gulliver-54"/>
      <use xlink:href="#Gulliver-6f" x="55.799988"/>
      <use xlink:href="#Gulliver-74" x="112.499985"/>
      <use xlink:href="#Gulliver-61" x="149.799973"/>
      <use xlink:href="#Gulliver-6c" x="201.59996"/>
      <use xlink:href="#Gulliver-20" x="231.499954"/>
      <use xlink:href="#Gulliver-43" x="256.499939"/>
      <use xlink:href="#Gulliver-6f" x="316.699936"/>
      <use xlink:href="#Gulliver-73" x="373.399933"/>
      <use xlink:href="#Gulliver-74" x="417.999924"/>
     </g>
    </g>
    <g id="PathCollection_2">
     <g>
      <use xlink:href="#maa8cc4b06d" x="547.822333" y="16.465625" style="fill: #ff0000; stroke: #ff0000"/>
     </g>
    </g>
    <g id="text_20">
     <!-- Highlighted Points -->
     <g transform="translate(565.822333 19.090625) scale(0.1 -0.1)">
      <defs>
       <path id="Gulliver-68" d="M 3686 0 
L 3686 134 
L 3520 224 
C 3360 314 3334 397 3334 787 
L 3334 2112 
C 3334 2867 3264 3053 3085 3245 
C 2912 3430 2598 3526 2323 3526 
C 1933 3526 1587 3373 1280 3059 
L 1280 5050 
L 314 4774 
L 314 4640 
L 474 4576 
C 634 4512 666 4422 666 4070 
L 666 787 
C 666 397 640 314 480 224 
L 314 134 
L 314 0 
L 1632 0 
L 1632 134 
L 1472 224 
C 1312 314 1280 397 1280 787 
L 1280 2938 
C 1472 3021 1715 3072 1952 3072 
C 2336 3072 2579 2944 2662 2701 
C 2707 2554 2720 2458 2720 1946 
L 2720 787 
C 2720 397 2688 314 2528 224 
L 2368 134 
L 2368 0 
L 3686 0 
z
" transform="scale(0.015625)"/>
       <path id="Gulliver-64" d="M 3533 154 
L 3533 288 
L 3373 352 
C 3213 416 3181 506 3181 864 
L 3181 5050 
L 2214 4819 
L 2214 4685 
L 2368 4621 
C 2534 4550 2566 4467 2566 4115 
L 2566 3354 
C 2310 3475 2106 3526 1850 3526 
C 870 3526 275 2797 275 1606 
C 275 557 742 -58 1549 -58 
C 1939 -58 2266 90 2586 410 
L 2586 -58 
L 3533 154 
z
M 2566 518 
C 2381 442 2163 397 1939 397 
C 1254 397 928 819 928 1696 
C 928 2675 1306 3155 2061 3155 
C 2221 3155 2394 3136 2566 3098 
L 2566 518 
z
" transform="scale(0.015625)"/>
       <path id="Gulliver-50" d="M 3507 3405 
C 3507 4122 3174 4557 2547 4659 
C 2323 4698 2208 4704 1734 4704 
L 314 4704 
L 314 4570 
L 480 4480 
C 640 4390 666 4307 666 3917 
L 666 787 
C 666 397 640 314 480 224 
L 314 134 
L 314 0 
L 1754 0 
L 1754 134 
L 1530 230 
C 1350 307 1318 403 1318 806 
L 1318 4352 
C 1318 4352 1600 4365 1734 4365 
C 2202 4365 2387 4320 2554 4166 
C 2733 3994 2822 3725 2822 3354 
C 2822 2611 2502 2285 1754 2285 
C 1638 2285 1600 2285 1510 2291 
L 1510 2163 
C 1638 2061 1882 1997 2131 1997 
C 2976 1997 3514 2541 3507 3405 
z
" transform="scale(0.015625)"/>
      </defs>
      <use xlink:href="#Gulliver-48"/>
      <use xlink:href="#Gulliver-69" x="74.599991"/>
      <use xlink:href="#Gulliver-67" x="104.599976"/>
      <use xlink:href="#Gulliver-68" x="158.799973"/>
      <use xlink:href="#Gulliver-6c" x="219.399963"/>
      <use xlink:href="#Gulliver-69" x="249.299957"/>
      <use xlink:href="#Gulliver-67" x="279.299942"/>
      <use xlink:href="#Gulliver-68" x="333.499939"/>
      <use xlink:href="#Gulliver-74" x="394.09993"/>
      <use xlink:href="#Gulliver-65" x="431.399918"/>
      <use xlink:href="#Gulliver-64" x="483.999908"/>
      <use xlink:href="#Gulliver-20" x="543.499893"/>
      <use xlink:href="#Gulliver-50" x="568.499878"/>
      <use xlink:href="#Gulliver-6f" x="624.899872"/>
      <use xlink:href="#Gulliver-69" x="681.599869"/>
      <use xlink:href="#Gulliver-6e" x="711.599854"/>
      <use xlink:href="#Gulliver-74" x="772.199844"/>
      <use xlink:href="#Gulliver-73" x="809.499832"/>
     </g>
    </g>
   </g>
  </g>
 </g>
 <defs>
  <clipPath id="p66d95eb5f9">
   <rect x="42.13125" y="45.18981" width="1011.260291" height="286.59873"/>
  </clipPath>
 </defs>
</svg>
